<svg xmlns="http://www.w3.org/2000/svg" width="150" height="150"><path fill="#fff" d="M115.133 73.967c-4.566-6.834-9.566-13.4-14.433-20.034-8.2-11.033-13.5-23.1-12.867-37.1.234-5.4 1.234-10.733 1.9-16.333L80.4 8.933c-15.767 14.9-29.9 31.134-40.367 50.3-6.766 12.434-11.566 25.5-12.666 39.8-2.034 24.667 16.966 48.2 41.566 51.067 27.134 3.233 50.367-14.4 54.3-41.333 1.867-12.567-1.133-24.3-8.1-34.8zm-15.9 40.9c-4.966 0-9.2-3.334-10.433-7.9l-15.667 2.6v.5c0 8.833-7.233 16.066-16.1 16.066-8.833 0-16.066-7.233-16.066-16.066 0-8.867 7.233-16.1 16.066-16.1 1.2 0 2.334.1 3.5.4l7.63-21.92a10.578 10.578 0 01-6.13-9.647c0-6.033 4.9-10.867 10.9-10.867 5.967 0 10.9 4.834 10.9 10.867s-4.933 10.833-10.9 10.833a9.52 9.52 0 01-2.566-.333l-7.534 21.733c4.967 1.967 8.8 6.3 9.967 11.567l15.567-2.567c0-6.066 4.866-10.9 10.9-10.9 6 0 10.833 4.834 10.833 10.9-.033 6-4.833 10.834-10.867 10.834z"/></svg>